:version 1.10
:name ASF
:units
  mass 1
  length 1
  angle deg
:documentation
  ASF file generated by Kaydara
:root
  axis xyz
  order  tx ty tz rx ry rz
  position 0 0 0
  orientation 0 0 0
:bonedata
  begin
    id 1
    name RightUpLegDummy
    direction -0.718183 -0.695806 0.00816078
    length 4.904
    axis 0 0 0 xyz
  end
  begin
    id 2
    name RightUpLeg
    direction 3.53989e-006 -0.995788 0.0916897
    length 17.4976
    axis -3.49089 -0.000906621 0.000287158 xyz
    dof rx ry rz
  end
  begin
    id 3
    name RightLeg
    direction 0.00371093 -0.995096 -0.0988418
    length 16.5821
    axis 3.68512 0.0193738 -0.131023 xyz
    dof rx ry rz
  end
  begin
    id 4
    name RightFoot
    direction 0.000791514 -0.46099 0.887405
    length 3.77069
    axis 4.84075e-005 -0.120479 -0.188788 xyz
    dof rx ry rz
  end
  begin
    id 5
    name RightToes
    direction 0.00124746 -0.014064 0.9999
    length 3.85082
    axis 0.00048216 0.542163 -0.142577 xyz
    dof rx ry rz
  end
  begin
    id 6
    name SpineDummy
    direction 8.3039e-015 1 4.57515e-016
    length 4.6813
    axis 0 0 0 xyz
  end
  begin
    id 7
    name Spine
    direction -4.63632e-008 0.999988 0.00495137
    length 10.1015
    axis -0.00138897 0.000121419 3.25764e-006 xyz
    dof rx ry rz
  end
  begin
    id 8
    name Spine1
    direction 0 0 0
    length 0
    axis -0.00138896 0.000121452 2.39764e-006 xyz
    dof rx ry rz
  end
  begin
    id 9
    name HEadDummy
    direction -3.91456e-008 0.999999 0.00127422
    length 3.43865
    axis -0.00138896 0.000121452 2.39764e-006 xyz
  end
  begin
    id 10
    name HEad
    direction -0.0222688 0.980941 0.193023
    length 5.12695
    axis -0.00138895 0.000121452 2.39764e-006 xyz
    dof rx ry rz
  end
  begin
    id 11
    name LeftShoulder1Dummy
    direction 0.998891 -0.0402508 -0.0244456
    length 3.5433
    axis -0.00138896 0.000121452 2.39764e-006 xyz
  end
  begin
    id 12
    name LeftShoulder1
    direction 0.99951 -0.000327743 0.0313091
    length 4.05031
    axis -0.00138896 0.000121452 2.39764e-006 xyz
    dof rx ry rz
  end
  begin
    id 13
    name LeftArm
    direction 0.998561 -0.00100054 -0.0536182
    length 10.3537
    axis -23.1894 0.134784 0.96751 xyz
    dof rx ry rz
  end
  begin
    id 14
    name LeftForeArm
    direction 0.998903 0.00866434 0.046012
    length 8.70632
    axis -9.91835 -0.06569 -0.177792 xyz
    dof rx ry rz
  end
  begin
    id 15
    name LeftHand
    direction 0.992938 -0.0411636 0.11126
    length 5.32135
    axis -0.00960227 -0.00340091 0.185174 xyz
    dof rx ry rz
  end
  begin
    id 16
    name RightShoulderDummy
    direction -0.998891 -0.0402509 -0.0244414
    length 3.5433
    axis -0.00138896 0.000121452 2.39764e-006 xyz
  end
  begin
    id 17
    name RightShoulder
    direction -0.99951 -0.000327827 0.0313133
    length 4.05031
    axis 0.215806 0.000203644 -0.00680151 xyz
    dof rx ry rz
  end
  begin
    id 18
    name RightArm
    direction -0.998573 -0.000999583 -0.053403
    length 10.3947
    axis -23.2009 -0.134239 -0.9641 xyz
    dof rx ry rz
  end
  begin
    id 19
    name RightForeArm
    direction -0.998898 0.00868026 0.0461306
    length 8.68355
    axis -9.92322 0.0658061 0.178869 xyz
    dof rx ry rz
  end
  begin
    id 20
    name RightHand
    direction -0.992843 -0.0414603 0.112003
    length 5.28593
    axis -0.00960634 0.00330671 -0.185226 xyz
    dof rx ry rz
  end
  begin
    id 21
    name LeftUpLegDummy
    direction 0.718183 -0.695806 0.00816078
    length 4.904
    axis 0 0 0 xyz
  end
  begin
    id 22
    name LeftUpLeg
    direction -6.8115e-006 -0.995793 0.0916336
    length 17.4976
    axis -3.48766 0.00143441 -0.000523914 xyz
    dof rx ry rz
  end
  begin
    id 23
    name LeftLeg
    direction -0.00601357 -0.995091 -0.0987824
    length 16.5821
    axis 3.68177 -0.00654038 -0.00028478 xyz
    dof rx ry rz
  end
  begin
    id 24
    name LeftFoot
    direction -0.00417578 -0.460984 0.887399
    length 3.77069
    axis 1.87232e-006 4.66002e-005 -8.1837e-006 xyz
    dof rx ry rz
  end
  begin
    id 25
    name LeftToes
    direction 0.00818058 -0.00485161 0.999955
    length 3.85048
    axis 1.06246e-005 4.65855e-005 -8.18502e-006 xyz
    dof rx ry rz
  end
:hierarchy
  begin
    root RightUpLegDummy SpineDummy LeftUpLegDummy
    RightUpLegDummy RightUpLeg
    RightUpLeg RightLeg
    RightLeg RightFoot
    RightFoot RightToes
    SpineDummy Spine
    Spine Spine1
    Spine1 HEadDummy LeftShoulder1Dummy RightShoulderDummy
    HEadDummy HEad
    LeftShoulder1Dummy LeftShoulder1
    LeftShoulder1 LeftArm
    LeftArm LeftForeArm
    LeftForeArm LeftHand
    RightShoulderDummy RightShoulder
    RightShoulder RightArm
    RightArm RightForeArm
    RightForeArm RightHand
    LeftUpLegDummy LeftUpLeg
    LeftUpLeg LeftLeg
    LeftLeg LeftFoot
    LeftFoot LeftToes
  end

:SAMPLES-PER-SECOND 30
:FRAME-RANGE 1-2045
:FULLY-SPECIFIED
:DEGREES
1
root  42.3587 29.2384 19.7119 -134.696 51.6725 55.6102
RightUpLeg  153.718 -54.0245 6.4035
RightLeg  87.0462 47.6468 88.8384
RightFoot  15.9549 -0.335254 1.83742
RightToes  -5.28216e-011 1.2921e-014 -6.02303e-014
Spine  6.16245 8.96824 -117.423
Spine1  8.76236 -38.7366 -66.5848
HEad  -2.22968 -12.9977 4.98471
LeftShoulder1  1.48595 -1.51966 -25.0096
LeftArm  -12.1613 20.4927 -42.1944
LeftForeArm  8.83842 -55.0421 -15.4869
LeftHand  0.300294 -0.719642 -5.58787
RightShoulder  1.71548 1.74034 28.0335
RightArm  -13.2905 -11.4149 51.275
RightForeArm  31.5515 54.6547 13.2195
RightHand  0.00133865 -3.34375 1.45156
LeftUpLeg  173.878 -4.1069 38.6132
LeftLeg  143.375 18.3142 168.003
LeftFoot  29.2598 5.18778 -14.47
LeftToes  9.43379e-011 5.24309e-011 -4.66411e-011
2
root  42.3587 29.2384 19.7119 -134.669 51.6948 55.6748
RightUpLeg  153.761 -54.0338 6.38493
RightLeg  86.9892 47.6449 88.7611
RightFoot  15.9394 -0.333206 1.82962
RightToes  -5.28216e-011 1.2921e-014 -6.02303e-014
Spine  6.09138 8.93899 -117.451
Spine1  8.72031 -38.7368 -66.5831
HEad  -2.16781 -13.0397 5.02613
LeftShoulder1  1.48595 -1.49672 -25.0137
LeftArm  -11.9464 20.5269 -42.0629
LeftForeArm  8.79764 -55.1684 -15.5696
LeftHand  0.300114 -0.648799 -5.58074
RightShoulder  1.73534 1.81265 27.9406
RightArm  -13.246 -11.4631 51.3017
RightForeArm  31.4567 54.5911 13.1929
RightHand  0.00152225 -3.32026 1.42524
LeftUpLeg  173.919 -4.1069 38.6132
LeftLeg  143.382 18.3155 167.995
LeftFoot  29.2331 5.2263 -14.5827
LeftToes  9.43379e-011 5.24309e-011 -4.66411e-011
3
root  42.3587 29.2384 19.7119 -134.658 51.7041 55.695
RightUpLeg  153.787 -54.0085 6.36951
RightLeg  87.036 47.6672 88.8252
RightFoot  15.9392 -0.309863 1.73345
RightToes  -5.28216e-011 1.2921e-014 -6.02303e-014
Spine  6.05589 8.91123 -117.481
Spine1  8.66791 -38.72 -66.5028
HEad  -2.03043 -12.5934 4.81545
LeftShoulder1  1.48747 -1.50444 -24.9949
LeftArm  -11.8761 20.5266 -42.0767
LeftForeArm  8.79683 -55.1505 -15.5584
LeftHand  0.300963 -0.659837 -5.63046
RightShoulder  1.74514 1.86513 27.7821
RightArm  -13.2621 -11.5063 51.4075
RightForeArm  31.4925 54.6057 13.1978
RightHand  0.00127758 -3.3339 1.38388
LeftUpLeg  173.932 -4.1069 38.6132
LeftLeg  143.392 18.3289 167.979
LeftFoot  29.2283 5.20069 -14.5161
LeftToes  9.43379e-011 5.24309e-011 -4.66411e-011
4
root  42.359 29.2384 19.7119 -134.665 51.7007 55.6907
RightUpLeg  153.769 -54.0066 6.37769
RightLeg  86.9894 47.6368 88.761
RightFoot  15.9292 -0.349517 1.89725
RightToes  -5.28216e-011 1.2921e-014 -6.02303e-014
Spine  6.0284 8.89915 -117.497
Spine1  8.6548 -38.6845 -66.4528
HEad  -1.84847 -11.3601 4.45526
LeftShoulder1  1.50131 -1.55822 -24.9352
LeftArm  -11.8347 20.4897 -42.1331
LeftForeArm  8.74262 -54.9934 -15.465
LeftHand  0.301229 -0.731268 -5.64255
RightShoulder  1.75451 1.90444 27.7059
RightArm  -13.2048 -11.4729 51.4165
RightForeArm  31.4895 54.6 13.1949
RightHand  0.00134354 -3.33174 1.40194
LeftUpLeg  173.919 -4.10714 38.6184
LeftLeg  143.371 18.3282 167.971
LeftFoot  29.2175 5.21334 -14.5539
LeftToes  9.43379e-011 5.24309e-011 -4.66411e-011
5
root  42.3606 29.2384 19.7119 -134.656 51.6838 55.6936
RightUpLeg  153.764 -54.0092 6.39908
RightLeg  87.0118 47.6315 88.791
RightFoot  15.9332 -0.353369 1.91295
RightToes  -5.28216e-011 1.2921e-014 -6.02303e-014
Spine  6.00587 8.91284 -117.494
Spine1  8.68458 -38.6304 -66.4637
HEad  -1.67619 -9.41143 3.99792
LeftShoulder1  1.51323 -1.61356 -24.8257
LeftArm  -11.7734 20.5256 -42.2221
LeftForeArm  8.62991 -54.9484 -15.4471
LeftHand  0.301499 -0.755039 -5.65736
RightShoulder  1.75893 1.89977 27.6967
RightArm  -13.075 -11.3422 51.3644
RightForeArm  31.3812 54.4899 13.1443
RightHand  0.00144038 -3.32083 1.39412
LeftUpLeg  173.898 -4.10819 38.6405
LeftLeg  143.348 18.3249 167.974
LeftFoot  29.25 5.20674 -14.5136
LeftToes  9.43379e-011 5.24309e-011 -4.66411e-011
